<?xml version="1.0" encoding="iso-8859-1"?>
<!-- Uploaded to: SVG Repo, www.svgrepo.com, Generator: SVG Repo Mixer Tools -->
<!DOCTYPE svg PUBLIC "-//W3C//DTD SVG 1.1//EN" "http://www.w3.org/Graphics/SVG/1.1/DTD/svg11.dtd">
<svg fill="#000000" version="1.1" id="Capa_1" xmlns="http://www.w3.org/2000/svg" xmlns:xlink="http://www.w3.org/1999/xlink" 
	 width="800px" height="800px" viewBox="0 0 487 487" xml:space="preserve">
<g>
	<path d="M481.999,234.842l-116.5-67.261c-3.094-1.787-6.906-1.787-10,0c-3.094,1.786-5,5.088-5,8.66v57.28h-194.1l-70.753-40.85
		c-4.783-2.76-10.898-1.123-13.66,3.66c-2.762,4.783-1.122,10.898,3.66,13.66l40.754,23.529H94.913L24.16,192.67
		c-4.783-2.76-10.899-1.123-13.66,3.66c-2.762,4.783-1.122,10.898,3.66,13.66l40.754,23.529H10c-5.523,0-10,4.478-10,10
		c0,5.522,4.477,10,10,10h44.848l-40.689,23.49c-4.783,2.762-6.422,8.878-3.66,13.66c1.852,3.208,5.213,5.002,8.669,5.002
		c1.696,0,3.416-0.433,4.991-1.342l70.689-40.812h21.487l-40.689,23.49c-4.783,2.762-6.422,8.877-3.66,13.66
		c1.852,3.208,5.213,5.002,8.67,5.002c1.696,0,3.416-0.433,4.991-1.342l70.689-40.812H350.5v57.241c0,3.572,1.906,6.874,5,8.66
		c1.547,0.895,3.272,1.34,5,1.34c1.727,0,3.453-0.445,5-1.34L482,252.157c3.094-1.786,5-5.088,5-8.66
		C486.999,239.931,485.093,236.629,481.999,234.842z M370.499,293.444v-99.882l86.5,49.939L370.499,293.444z"/>
</g>
</svg>